<svg xmlns="http://www.w3.org/2000/svg" width="20" height="20" fill="none" viewBox="0 0 20 20"><path fill="currentColor" fill-opacity=".2" d="M17.25 7v5.5h-15V7z"/><path stroke="currentColor" stroke-linecap="round" stroke-linejoin="round" stroke-width="1.5" d="M9.75 2.25v6m0 0 2.5-2.5m-2.5 2.5-2.5-2.5m2.5 11.5v-6m0 0 2.5 2.5m-2.5-2.5-2.5 2.5m7.5-7h.9c.56 0 .84 0 1.054.109a1 1 0 0 1 .437.437c.109.214.109.494.109 1.054v2.8c0 .56 0 .84-.109 1.054a1 1 0 0 1-.437.437c-.214.109-.494.109-1.054.109h-.9m-10-6h-.9c-.56 0-.84 0-1.054.109a1 1 0 0 0-.437.437c-.109.214-.109.494-.109 1.054v2.8c0 .56 0 .84.109 1.054a1 1 0 0 0 .437.437c.214.109.494.109 1.054.109h.9"/></svg>