<svg xmlns="http://www.w3.org/2000/svg" width="20" height="20" fill="none" viewBox="0 0 20 20"><path fill="currentColor" fill-opacity=".2" d="M17.5 7v6h-15V7z"/><path stroke="currentColor" stroke-linecap="round" stroke-linejoin="round" stroke-width="1.5" d="M10 2.5v6m0 0L12.5 6M10 8.5 7.5 6M10 17.5v-6m0 0 2.5 2.5M10 11.5 7.5 14M15 7h.9c.56 0 .84 0 1.054.109a1 1 0 0 1 .437.437c.109.214.109.494.109 1.054v2.8c0 .56 0 .84-.109 1.054a1 1 0 0 1-.437.437C16.74 13 16.46 13 15.9 13H15M5 7h-.9c-.56 0-.84 0-1.054.109a1 1 0 0 0-.437.437C2.5 7.76 2.5 8.04 2.5 8.6v2.8c0 .56 0 .84.109 1.054a1 1 0 0 0 .437.437C3.26 13 3.54 13 4.1 13H5"/></svg>