<svg xmlns="http://www.w3.org/2000/svg" width="20" height="20" fill="none" viewBox="0 0 20 20"><path fill="currentColor" d="M4 6.5A1.5 1.5 0 0 1 5.5 5H15v9.5a1.5 1.5 0 0 1-1.5 1.5h-8A1.5 1.5 0 0 1 4 14.5v-8Z" opacity=".2"/><path stroke="currentColor" stroke-linecap="round" stroke-linejoin="round" stroke-width="1.5" d="M8.46 11.536 16.998 3m.252 4.75v-5h-5"/><path stroke="currentColor" stroke-linecap="round" stroke-width="1.5" d="M9.75 4.75h-3.6c-.84 0-1.26 0-1.581.163a1.5 1.5 0 0 0-.656.656c-.163.32-.163.74-.163 1.581v6.7c0 .84 0 1.26.163 1.581a1.5 1.5 0 0 0 .656.656c.32.163.74.163 1.581.163h6.7c.84 0 1.26 0 1.581-.163a1.5 1.5 0 0 0 .655-.656c.164-.32.164-.74.164-1.581v-3.6"/></svg>