<svg xmlns="http://www.w3.org/2000/svg" width="24" height="24" fill="none" viewBox="0 0 24 24"><rect width="13" height="13" x="5" y="6" fill="currentColor" fill-opacity=".2" rx="1"/><path stroke="currentColor" stroke-linecap="round" stroke-linejoin="round" stroke-width="2" d="M10.465 13.536 21 3m0 6V3h-6"/><path stroke="currentColor" stroke-linecap="round" stroke-width="2" d="M12 6H8.2c-1.12 0-1.68 0-2.108.218a2 2 0 0 0-.874.874C5 7.52 5 8.08 5 9.2v6.6c0 1.12 0 1.68.218 2.108a2 2 0 0 0 .874.874C6.52 19 7.08 19 8.2 19h6.6c1.12 0 1.68 0 2.108-.218a2 2 0 0 0 .874-.874C18 17.48 18 16.92 18 15.8V12"/></svg>