<svg xmlns="http://www.w3.org/2000/svg" width="20" height="20" fill="none" viewBox="0 0 20 20"><rect width="11" height="11" x="4" y="5" fill="currentColor" opacity=".2" rx="1.5"/><path stroke="currentColor" stroke-linecap="round" stroke-linejoin="round" stroke-width="1.5" d="M8.465 11.536 17 3m0 5V3h-5"/><path stroke="currentColor" stroke-linecap="round" stroke-width="1.5" d="M10 5H6.4c-.84 0-1.26 0-1.581.163a1.5 1.5 0 0 0-.656.656C4 6.139 4 6.559 4 7.4v6.2c0 .84 0 1.26.163 1.581a1.5 1.5 0 0 0 .656.655c.32.164.74.164 1.581.164h6.2c.84 0 1.26 0 1.581-.164a1.5 1.5 0 0 0 .655-.655c.164-.32.164-.74.164-1.581V10"/></svg>