<svg xmlns="http://www.w3.org/2000/svg" width="24" height="24" fill="none" viewBox="0 0 24 24"><circle cx="12" cy="12" r="7" fill="currentColor" opacity=".2"/><path stroke="currentColor" stroke-linecap="round" stroke-linejoin="round" stroke-width="2" d="M19 11a6.912 6.912 0 0 0-2.033-3.986 7.14 7.14 0 0 0-4.08-1.957 7.198 7.198 0 0 0-4.452.876 7 7 0 0 0-2.998 3.349M5 5.846v3.436h3.5M5 13a6.912 6.912 0 0 0 2.033 3.986 7.14 7.14 0 0 0 4.08 1.957 7.198 7.198 0 0 0 4.452-.876 7 7 0 0 0 2.998-3.349M19 18.154v-3.436h-3.5"/></svg>