<svg xmlns="http://www.w3.org/2000/svg" width="24" height="24" fill="none" viewBox="0 0 24 24"><circle cx="12" cy="12" r="7" fill="currentColor" opacity=".2"/><path fill="currentColor" d="M15.072 6.803a6.198 6.198 0 0 0-3.833-.754A6.14 6.14 0 0 0 7.73 7.731a5.912 5.912 0 0 0-1.74 3.41 1 1 0 0 1-1.98-.281 7.912 7.912 0 0 1 2.326-4.563 8.14 8.14 0 0 1 4.652-2.232 8.198 8.198 0 0 1 5.07.998A8.064 8.064 0 0 1 18 6.6v-.754a1 1 0 1 1 2 0v3.436a1 1 0 0 1-1 1h-3.5a1 1 0 1 1 0-2h1.31a6.05 6.05 0 0 0-1.738-1.479Zm4.068 5.207a1 1 0 0 1 .85 1.13 7.912 7.912 0 0 1-2.326 4.563 8.14 8.14 0 0 1-4.651 2.232 8.198 8.198 0 0 1-5.072-.998 8.063 8.063 0 0 1-1.94-1.537v.754a1 1 0 0 1-2 0v-3.436a1 1 0 0 1 1-1H8.5a1 1 0 1 1 0 2H7.19a6.05 6.05 0 0 0 1.738 1.479 6.198 6.198 0 0 0 3.833.754 6.14 6.14 0 0 0 3.51-1.682 5.912 5.912 0 0 0 1.739-3.41 1 1 0 0 1 1.13-.85Z"/></svg>