<svg xmlns="http://www.w3.org/2000/svg" width="24" height="24" fill="none" viewBox="0 0 24 24"><path fill="currentColor" fill-opacity=".2" d="M13.675 4.317c-.426-1.756-2.924-1.756-3.35 0a1.723 1.723 0 0 1-2.572 1.065c-1.544-.94-3.31.827-2.37 2.37a1.724 1.724 0 0 1-1.066 2.573c-1.756.426-1.756 2.924 0 3.35a1.725 1.725 0 0 1 1.065 2.572c-.94 1.544.827 3.31 2.37 2.37a1.724 1.724 0 0 1 2.573 1.066c.426 1.756 2.924 1.756 3.35 0a1.725 1.725 0 0 1 2.572-1.065c1.544.94 3.31-.827 2.37-2.37a1.725 1.725 0 0 1 1.066-2.573c1.756-.426 1.756-2.924 0-3.35a1.724 1.724 0 0 1-1.065-2.572c.94-1.544-.827-3.31-2.37-2.37a1.724 1.724 0 0 1-2.573-1.066Zm-3.796 9.804A3 3 0 1 1 14.12 9.88a3 3 0 0 1-4.24 4.24Z"/><path fill="currentColor" d="m10.325 4.317.972.236-.972-.236Zm3.35 0 .972-.235-.972.235ZM7.753 5.382l-.52.854.52-.854Zm-2.37 2.37-.854.52.854-.52Zm-1.066 2.573-.235-.972.235.972Zm0 3.35.236-.972-.236.972Zm1.065 2.572-.854-.52.854.52Zm2.37 2.37.52.854-.52-.854Zm2.573 1.066-.972.236.972-.236Zm3.35 0-.972-.236.972.236Zm2.572-1.065-.52.854.52-.854Zm2.37-2.37.854-.52-.854.52Zm1.066-2.573.236.972-.236-.972Zm0-3.35-.236.972.236-.972Zm-1.065-2.572.854.52-.854-.52Zm-2.37-2.37-.52-.854.52.854Zm-4.951-.83c.179-.737 1.227-.737 1.406 0l1.944-.472c-.673-2.775-4.62-2.775-5.294 0l1.944.472ZM7.233 6.236c1.578.96 3.628.11 4.064-1.683l-1.944-.472a.723.723 0 0 1-1.08.447l-1.04 1.708Zm-.996.996c-.395-.648.347-1.39.996-.996l1.04-1.708c-2.44-1.485-5.23 1.306-3.744 3.744l1.708-1.04Zm.39 1.207a2.724 2.724 0 0 0-.39-1.208L4.529 8.273c.06.097.095.207.104.32l1.994-.154Zm-.2 1.253c.165-.396.233-.825.2-1.253l-1.994.155a.724.724 0 0 1-.053.333l1.848.765Zm-.745 1.027c.326-.279.581-.63.746-1.027L4.58 8.927a.724.724 0 0 1-.198.273l1.3 1.519Zm-1.13.578a2.724 2.724 0 0 0 1.13-.578l-1.3-1.52a.724.724 0 0 1-.3.154l.47 1.944Zm0 1.406c-.736-.179-.736-1.227 0-1.406l-.47-1.944c-2.776.673-2.776 4.62 0 5.294l.47-1.944Zm1.13.579a2.725 2.725 0 0 0-1.129-.579l-.472 1.944c.11.027.213.08.3.153l1.3-1.519Zm.744 1.026a2.725 2.725 0 0 0-.744-1.027l-1.301 1.52a.723.723 0 0 1 .198.272l1.847-.765Zm.2 1.252a2.724 2.724 0 0 0-.2-1.252l-1.847.765a.73.73 0 0 1 .052.333l1.994.154Zm-.39 1.207c.223-.366.356-.78.39-1.207l-1.995-.154a.724.724 0 0 1-.103.32l1.708 1.041Zm.996.996c-.648.395-1.39-.347-.996-.996l-1.708-1.04c-1.485 2.44 1.306 5.23 3.744 3.744l-1.04-1.708Zm1.207-.39a2.724 2.724 0 0 0-1.208.39l1.042 1.708a.724.724 0 0 1 .32-.104l-.154-1.994Zm1.253.2a2.725 2.725 0 0 0-1.253-.2l.155 1.994a.725.725 0 0 1 .333.053l.765-1.848Zm1.027.745a2.723 2.723 0 0 0-1.027-.746l-.765 1.848a.724.724 0 0 1 .273.198l1.519-1.3Zm.578 1.13a2.723 2.723 0 0 0-.578-1.13l-1.52 1.3c.075.087.127.19.154.3l1.944-.47Zm1.406 0c-.179.736-1.227.736-1.406 0l-1.944.47c.673 2.776 4.62 2.776 5.294 0l-1.944-.47Zm.579-1.13a2.725 2.725 0 0 0-.579 1.129l1.944.472a.724.724 0 0 1 .153-.3l-1.519-1.3Zm1.026-.744a2.725 2.725 0 0 0-1.027.744l1.52 1.301a.722.722 0 0 1 .272-.197l-.765-1.848Zm1.252-.2a2.723 2.723 0 0 0-1.252.2l.765 1.848a.724.724 0 0 1 .333-.053l.154-1.994Zm1.207.39a2.724 2.724 0 0 0-1.207-.39l-.154 1.995a.725.725 0 0 1 .32.103l1.041-1.708Zm.996-.996c.395.648-.347 1.39-.996.996l-1.04 1.708c2.44 1.485 5.23-1.306 3.744-3.744l-1.708 1.04Zm-.39-1.207c.033.428.167.841.39 1.208l1.708-1.042a.724.724 0 0 1-.104-.32l-1.994.154Zm.2-1.253a2.725 2.725 0 0 0-.2 1.253l1.994-.155a.725.725 0 0 1 .053-.333l-1.848-.765Zm.745-1.027c-.326.279-.581.63-.746 1.027l1.848.765a.723.723 0 0 1 .198-.273l-1.3-1.519Zm1.13-.578a2.723 2.723 0 0 0-1.13.578l1.3 1.52a.723.723 0 0 1 .3-.154l-.47-1.944Zm0-1.406c.736.179.736 1.227 0 1.406l.47 1.944c2.776-.673 2.776-4.62 0-5.294l-.47 1.944Zm-1.13-.579c.326.28.712.477 1.129.579l.472-1.944a.724.724 0 0 1-.3-.153l-1.3 1.519Zm-.744-1.026c.164.396.419.748.744 1.027l1.301-1.52a.723.723 0 0 1-.197-.272l-1.848.765Zm-.2-1.252c-.033.427.036.856.2 1.252l1.848-.765a.724.724 0 0 1-.053-.333l-1.994-.154Zm.39-1.207c-.223.366-.356.78-.39 1.207l1.995.154a.725.725 0 0 1 .103-.32l-1.708-1.041Zm-.996-.996c.648-.395 1.39.347.996.996l1.708 1.04c1.485-2.44-1.306-5.23-3.744-3.744l1.04 1.708Zm-1.207.39a2.724 2.724 0 0 0 1.208-.39l-1.042-1.708a.724.724 0 0 1-.32.104l.154 1.994Zm-1.253-.2c.396.165.825.233 1.253.2l-.155-1.994a.724.724 0 0 1-.333-.053l-.765 1.848Zm-1.027-.745c.279.326.63.581 1.027.746l.765-1.848a.724.724 0 0 1-.273-.198l-1.519 1.3Zm-.578-1.13c.101.417.3.804.578 1.13l1.52-1.3a.723.723 0 0 1-.154-.3l-1.944.47ZM8 12a4 4 0 0 0 1.172 2.828l1.414-1.414A2 2 0 0 1 10 12H8Zm1.172-2.828A4 4 0 0 0 8 12h2a2 2 0 0 1 .586-1.414L9.172 9.172ZM12 8a4 4 0 0 0-2.828 1.172l1.414 1.414A2 2 0 0 1 12 10V8Zm2.828 1.172A4 4 0 0 0 12 8v2a2 2 0 0 1 1.414.586l1.414-1.414ZM16 12a4 4 0 0 0-1.172-2.828l-1.414 1.414A2 2 0 0 1 14 12h2Zm-1.172 2.828A4 4 0 0 0 16 12h-2a2 2 0 0 1-.586 1.414l1.414 1.414ZM12 16a4 4 0 0 0 2.828-1.172l-1.414-1.414A2 2 0 0 1 12 14v2Zm-2.828-1.172A4 4 0 0 0 12 16v-2a2 2 0 0 1-1.414-.586l-1.414 1.414Z"/></svg>