<svg xmlns="http://www.w3.org/2000/svg" width="24" height="24" fill="none" viewBox="0 0 24 24"><path fill="currentColor" fill-opacity=".2" stroke="currentColor" stroke-width="2" d="M18.137 13c1.212 0 1.818 0 2.098-.24a1 1 0 0 0 .348-.838c-.03-.368-.458-.797-1.314-1.653l-5.572-5.572c-.594-.594-.891-.891-1.233-1.002a1.5 1.5 0 0 0-.928 0c-.342.111-.639.408-1.233 1.002L4.73 10.27c-.856.856-1.285 1.285-1.314 1.652a1 1 0 0 0 .348.84c.28.239.886.239 2.098.239H8.5v5.4c0 .56 0 .84.11 1.054a1 1 0 0 0 .436.437c.214.11.494.11 1.054.11h3.8c.56 0 .84 0 1.054-.11a1 1 0 0 0 .437-.437c.11-.214.11-.494.11-1.054V13h2.636Z"/></svg>