<svg xmlns="http://www.w3.org/2000/svg" width="20" height="20" fill="none" viewBox="0 0 20 20"><path fill="currentColor" fill-opacity=".2" stroke="currentColor" stroke-width="1.5" d="M15.137 11c1.212 0 1.818 0 2.098-.24a1 1 0 0 0 .348-.838c-.03-.368-.458-.796-1.314-1.653l-4.572-4.571c-.594-.594-.891-.891-1.233-1.003a1.5 1.5 0 0 0-.928 0c-.342.112-.639.409-1.233 1.003L3.73 8.269c-.856.857-1.285 1.285-1.314 1.653a1 1 0 0 0 .348.839c.28.24.886.24 2.098.24h2.14v4.4c0 .56 0 .84.108 1.054a1 1 0 0 0 .437.437c.214.109.494.109 1.054.109h2.8c.56 0 .84 0 1.054-.11a1 1 0 0 0 .437-.436c.11-.214.11-.494.11-1.054V11h2.134Z"/></svg>