<svg xmlns="http://www.w3.org/2000/svg" width="20" height="20" fill="none" viewBox="0 0 20 20"><path fill="currentColor" fill-opacity=".2" stroke="currentColor" stroke-width="1.5" d="M15.137 10.75c1.212 0 1.818 0 2.098-.24a1 1 0 0 0 .348-.838c-.03-.368-.458-.797-1.314-1.653l-4.572-4.572c-.594-.594-.891-.891-1.233-1.002a1.5 1.5 0 0 0-.928 0c-.342.111-.639.408-1.233 1.002L3.73 8.02c-.856.856-1.285 1.285-1.314 1.653a1 1 0 0 0 .348.838c.28.24.886.24 2.098.24H6.75v4.4c0 .56 0 .84.108 1.054a1 1 0 0 0 .437.437c.214.109.494.109 1.054.109h3.3c.56 0 .84 0 1.054-.109a1 1 0 0 0 .437-.437c.11-.214.11-.494.11-1.054v-4.4h1.887Z"/></svg>