<svg xmlns="http://www.w3.org/2000/svg" fill="currentColor" viewBox="0 0 128 128"><path d="M19 64c0-24.853 20.147-45 45-45s45 20.147 45 45-20.147 45-45 45-45-20.147-45-45Zm45-51c-28.166 0-51 22.834-51 51s22.834 51 51 51 51-22.834 51-51-22.834-51-51-51Zm-8 77.243-5.879 5.878a3 3 0 0 1-4.242 0l-6-6a3 3 0 1 1 4.242-4.242L48 89.757l5.879-5.878a3 3 0 0 1 4.242 0L64 89.757l5.879-5.878a3 3 0 0 1 4.242 0L80 89.757l3.879-3.878a3 3 0 1 1 4.242 4.242l-6 6a3 3 0 0 1-4.242 0L72 90.243l-5.879 5.878a3 3 0 0 1-4.242 0L56 90.243Zm32.441-37.987a3 3 0 0 1-.697 4.185L77.16 64l10.583 7.559a3 3 0 0 1-3.488 4.882l-14-10a3 3 0 0 1 0-4.882l14-10a3 3 0 0 1 4.185.697Zm-48.185 4.185a3 3 0 1 1 3.488-4.882l14 10a3 3 0 0 1 0 4.882l-14 10a3 3 0 0 1-3.488-4.882L50.84 64l-10.583-7.559Z"/></svg>