<svg xmlns="http://www.w3.org/2000/svg" fill="currentColor" viewBox="0 0 128 128"><path d="M19 64c0-24.853 20.147-45 45-45s45 20.147 45 45-20.147 45-45 45-45-20.147-45-45Zm45-51c-28.166 0-51 22.834-51 51s22.834 51 51 51 51-22.834 51-51-22.834-51-51-51Zm30.121 37.121a3 3 0 1 0-4.242-4.242L84 51.757l-5.879-5.878a3 3 0 1 0-4.242 4.242L79.757 56l-5.878 5.879a3 3 0 1 0 4.242 4.242L84 60.243l5.879 5.878a3 3 0 1 0 4.242-4.242L88.243 56l5.878-5.879Zm-40 0a3 3 0 1 0-4.242-4.242L44 51.757l-5.879-5.878a3 3 0 1 0-4.242 4.242L39.757 56l-5.878 5.879a3 3 0 1 0 4.242 4.242L44 60.243l5.879 5.878a3 3 0 1 0 4.242-4.242L48.243 56l5.878-5.879ZM70 86a6 6 0 1 1-12 0 6 6 0 0 1 12 0Z"/></svg>