<svg xmlns="http://www.w3.org/2000/svg" fill="currentColor" viewBox="0 0 128 128"><path d="M19 64c0-24.853 20.147-45 45-45s45 20.147 45 45-20.147 45-45 45-45-20.147-45-45Zm45-51c-28.166 0-51 22.834-51 51s22.834 51 51 51 51-22.834 51-51-22.834-51-51-51ZM52 54a6 6 0 1 1-12 0 6 6 0 0 1 12 0Zm30 6a6 6 0 1 0 0-12 6 6 0 0 0 0 12ZM64 73c-10.111 0-17.993 5.538-22.597 13.498a3 3 0 1 0 5.194 3.004C50.293 83.112 56.34 79 64 79c7.659 0 13.707 4.112 17.403 10.502a3 3 0 1 0 5.194-3.004C81.993 78.538 74.11 73 64 73Z"/></svg>