<svg xmlns="http://www.w3.org/2000/svg" fill="currentColor" viewBox="0 0 128 128"><path d="M19 64c0-24.853 20.147-45 45-45s45 20.147 45 45-20.147 45-45 45-45-20.147-45-45Zm45-51c-28.166 0-51 22.834-51 51s22.834 51 51 51 51-22.834 51-51-22.834-51-51-51ZM50.121 73.879a3 3 0 0 0-4.242 0l-8 8a3 3 0 1 0 4.242 4.242L48 80.243l5.879 5.878a3 3 0 0 0 4.242 0L64 80.243l5.879 5.878a3 3 0 0 0 4.242 0L80 80.243l5.879 5.878a3 3 0 1 0 4.242-4.242l-8-8a3 3 0 0 0-4.242 0L72 79.757l-5.879-5.878a3 3 0 0 0-4.242 0L56 79.757l-5.879-5.878ZM46 60a6 6 0 1 0 0-12 6 6 0 0 0 0 12Zm42-6a6 6 0 1 1-12 0 6 6 0 0 1 12 0Z"/></svg>