<svg xmlns="http://www.w3.org/2000/svg" fill="currentColor" viewBox="0 0 128 128"><path d="M29.872 8.806c-6.97 8.941-13.745 17.635-13.87 29.176C16.123 45.744 22.568 52 30.5 52c7.932 0 14.377-6.256 14.498-14.018-.125-11.541-6.9-20.235-13.87-29.176L30.5 8l-.628.806Zm-15.125 41.91A51.069 51.069 0 0 0 13 64c0 28.166 22.834 51 51 51s51-22.834 51-51-22.834-51-51-51a50.844 50.844 0 0 0-19.626 3.913 54.526 54.526 0 0 1 2.874 5.308A44.877 44.877 0 0 1 64 19c24.853 0 45 20.147 45 45s-20.147 45-45 45-45-20.147-45-45c0-3.055.305-6.04.885-8.924a20.555 20.555 0 0 1-5.138-4.36Zm33.64 40.81C51.52 85.97 56.96 82 64 82c7.04 0 12.48 3.97 15.613 9.526a3 3 0 1 1-5.226 2.948C72.126 90.464 68.51 88 64 88s-8.126 2.464-10.387 6.474a3 3 0 1 1-5.226-2.948ZM86 62c-4.354 0-8.472 2.011-11.842 4.632a3 3 0 1 0 3.684 4.736C80.622 69.205 83.469 68 86 68c2.531 0 5.378 1.205 8.158 3.368a3 3 0 1 0 3.684-4.736C94.472 64.012 90.354 62 86 62Zm-55.842 4.632C33.528 64.012 37.646 62 42 62s8.472 2.011 11.842 4.632a3 3 0 1 1-3.684 4.736C47.378 69.205 44.531 68 42 68c-2.531 0-5.378 1.205-8.158 3.368a3 3 0 1 1-3.684-4.736Z"/></svg>