<svg xmlns="http://www.w3.org/2000/svg" fill="currentColor" viewBox="0 0 126 72"><path d="M.98 4.914C0 6.84 0 9.36 0 14.4v43.2c0 5.04 0 7.56.98 9.486a9 9 0 0 0 3.934 3.933C6.84 72 9.36 72 14.4 72h97.2c5.04 0 7.561 0 9.486-.98a9.003 9.003 0 0 0 3.933-3.934C126 65.16 126 62.64 126 57.6V14.4c0-5.04 0-7.56-.981-9.486a9.003 9.003 0 0 0-3.933-3.933C119.161 0 116.64 0 111.6 0H14.4C9.36 0 6.84 0 4.914.98A9 9 0 0 0 .981 4.915Zm42.395 45.768c1.096-.322 2.838-.774 4.063-.967v-12.9H33.893v12.9c1.226.193 2.967.645 4.064.967v2.193H19.51v-2.193c1.29-.322 3.16-.774 4.45-.967V22.367c-1.29-.258-3.16-.645-4.45-.968v-2.257h18.447v2.257c-1.097.323-2.838.71-4.064.968v11.416h13.545V22.367c-1.225-.258-2.967-.645-4.063-.968v-2.257h18.447v2.257c-1.29.323-3.16.71-4.45.968v27.348c1.29.193 3.16.645 4.45.967v2.193H43.375v-2.193Zm35.06-19.866c-1.097-1.612-2.194-3.29-3.161-4.966h-.452a87.74 87.74 0 0 1 .194 5.87l.193 15.995c.487.229.981.453 1.475.678 1.6.727 3.193 1.452 4.524 2.29v2.192h-14.32v-2.193c1.29-.967 2.968-2.064 4.387-2.967l.774-23.8c-1.677-.71-3.741-1.742-5.031-2.516v-2.257h15.286l13.03 18.447c1.225 1.741 2.257 3.418 3.288 5.095h.452c-.129-1.935-.193-3.999-.258-6.063l-.193-12.706a53.49 53.49 0 0 1-5.096-2.516v-2.257h12.449v2.257c-1.032.839-2.258 1.806-3.483 2.516l-.903 28.96h-7.547L78.434 30.816Z"/></svg>